STARTFONT 2.3
FONT -FontForge-Indie Flower-Book-R-Normal--14-140-72-72-P-64-ISO10646-1
SIZE 14 72 72  2
FONTBOUNDINGBOX 18 20 -2 -7
COMMENT "Generated by fontforge, http://fontforge.sourceforge.net"
COMMENT "Copyright (c) 2010, Kimberly Geswein (kimberlygeswein.com)"
STARTPROPERTIES 40
FOUNDRY "FontForge"
FAMILY_NAME "Indie Flower"
WEIGHT_NAME "Book"
SLANT "R"
SETWIDTH_NAME "Normal"
ADD_STYLE_NAME ""
PIXEL_SIZE 14
POINT_SIZE 140
RESOLUTION_X 72
RESOLUTION_Y 72
SPACING "P"
AVERAGE_WIDTH 64
CHARSET_REGISTRY "ISO10646"
CHARSET_ENCODING "1"
FONTNAME_REGISTRY ""
CHARSET_COLLECTIONS "ISO8859-2 ISO8859-9 ISO8859-4 ISO10646-1"
BITS_PER_PIXEL 2
FONT_NAME "IndieFlower"
FACE_NAME "Indie Flower"
COPYRIGHT "Copyright (c) 2010, Kimberly Geswein (kimberlygeswein.com)"
FONT_VERSION "1.001 2010"
FONT_ASCENT 11
FONT_DESCENT 3
UNDERLINE_POSITION -1
UNDERLINE_THICKNESS 1
X_HEIGHT 5
CAP_HEIGHT 6
RAW_ASCENT 799
RAW_DESCENT 200
NORM_SPACE 5
RELATIVE_WEIGHT 40
RELATIVE_SETWIDTH 50
SUPERSCRIPT_X 0
SUPERSCRIPT_Y 6
SUPERSCRIPT_SIZE 9
SUBSCRIPT_X 0
SUBSCRIPT_Y 1
SUBSCRIPT_SIZE 9
AVG_LOWERCASE_WIDTH 62
AVG_UPPERCASE_WIDTH 75
ENDPROPERTIES
CHARS 356
STARTCHAR space
ENCODING 32
SWIDTH 375 0
DWIDTH 5 0
BBX 1 1 0 0
BITMAP
00
ENDCHAR
STARTCHAR exclam
ENCODING 33
SWIDTH 149 0
DWIDTH 2 0
BBX 2 12 0 0
BITMAP
40
50
50
50
50
50
50
50
00
00
50
A0
ENDCHAR
STARTCHAR quotedbl
ENCODING 34
SWIDTH 234 0
DWIDTH 3 0
BBX 3 4 0 7
BITMAP
48
88
9C
58
ENDCHAR
STARTCHAR numbersign
ENCODING 35
SWIDTH 768 0
DWIDTH 11 0
BBX 11 7 0 0
BITMAP
004400
008800
06EEA0
A59950
06FE54
145500
000500
ENDCHAR
STARTCHAR dollar
ENCODING 36
SWIDTH 581 0
DWIDTH 8 0
BBX 8 13 0 0
BITMAP
0040
0094
01F4
0AA4
0960
02A0
01B4
0199
4292
6282
1BC6
03E8
0280
ENDCHAR
STARTCHAR percent
ENCODING 37
SWIDTH 636 0
DWIDTH 9 0
BBX 9 9 0 0
BITMAP
000100
240800
951400
825000
688000
024A40
022180
092240
082900
ENDCHAR
STARTCHAR ampersand
ENCODING 38
SWIDTH 457 0
DWIDTH 6 0
BBX 6 10 0 0
BITMAP
0900
0E00
0E00
0D00
0CA0
2C80
2680
9340
8680
A840
ENDCHAR
STARTCHAR quotesingle
ENCODING 39
SWIDTH 102 0
DWIDTH 1 0
BBX 2 3 0 7
BITMAP
80
80
90
ENDCHAR
STARTCHAR parenleft
ENCODING 40
SWIDTH 421 0
DWIDTH 6 0
BBX 6 9 0 -1
BITMAP
0290
0900
2400
2000
9000
8000
9000
2500
0500
ENDCHAR
STARTCHAR parenright
ENCODING 41
SWIDTH 290 0
DWIDTH 4 0
BBX 4 9 0 -1
BITMAP
24
09
06
02
02
09
18
74
90
ENDCHAR
STARTCHAR asterisk
ENCODING 42
SWIDTH 412 0
DWIDTH 6 0
BBX 6 6 0 3
BITMAP
0050
2A80
2F80
7B40
2380
0100
ENDCHAR
STARTCHAR plus
ENCODING 43
SWIDTH 459 0
DWIDTH 6 0
BBX 6 6 0 0
BITMAP
0800
0900
1A90
AA50
0600
0200
ENDCHAR
STARTCHAR comma
ENCODING 44
SWIDTH 130 0
DWIDTH 2 0
BBX 2 5 0 -3
BITMAP
90
50
90
80
40
ENDCHAR
STARTCHAR hyphen
ENCODING 45
SWIDTH 375 0
DWIDTH 5 0
BBX 5 2 0 3
BITMAP
1540
6540
ENDCHAR
STARTCHAR period
ENCODING 46
SWIDTH 204 0
DWIDTH 3 0
BBX 3 3 0 0
BITMAP
20
74
34
ENDCHAR
STARTCHAR slash
ENCODING 47
SWIDTH 309 0
DWIDTH 4 0
BBX 4 11 0 0
BITMAP
01
02
02
05
09
08
18
24
20
90
80
ENDCHAR
STARTCHAR zero
ENCODING 48
SWIDTH 430 0
DWIDTH 6 0
BBX 6 6 0 0
BITMAP
1F40
6080
8060
8060
6090
1B80
ENDCHAR
STARTCHAR one
ENCODING 49
SWIDTH 318 0
DWIDTH 4 0
BBX 4 8 0 0
BITMAP
02
03
0B
2A
A6
06
05
04
ENDCHAR
STARTCHAR two
ENCODING 50
SWIDTH 497 0
DWIDTH 7 0
BBX 7 8 0 0
BITMAP
0180
0260
0020
0020
0030
0050
BA80
6AB4
ENDCHAR
STARTCHAR three
ENCODING 51
SWIDTH 430 0
DWIDTH 6 0
BBX 6 8 0 0
BITMAP
1500
5540
0180
2E00
0680
4050
6060
1A90
ENDCHAR
STARTCHAR four
ENCODING 52
SWIDTH 412 0
DWIDTH 6 0
BBX 6 9 0 0
BITMAP
1000
6000
9000
8050
80D0
66C0
2990
0090
0090
ENDCHAR
STARTCHAR five
ENCODING 53
SWIDTH 571 0
DWIDTH 8 0
BBX 8 10 0 0
BITMAP
0050
07A9
0500
0800
1F80
0060
0008
4008
9028
2FE0
ENDCHAR
STARTCHAR six
ENCODING 54
SWIDTH 440 0
DWIDTH 6 0
BBX 6 9 0 0
BITMAP
0040
0660
1800
2000
6A40
9090
8020
6060
2F80
ENDCHAR
STARTCHAR seven
ENCODING 55
SWIDTH 412 0
DWIDTH 6 0
BBX 6 8 0 0
BITMAP
5500
1640
0200
0200
2B90
0200
0600
0500
ENDCHAR
STARTCHAR eight
ENCODING 56
SWIDTH 375 0
DWIDTH 5 0
BBX 5 8 0 0
BITMAP
2E00
9200
9500
2C00
2600
5180
2080
1A40
ENDCHAR
STARTCHAR nine
ENCODING 57
SWIDTH 300 0
DWIDTH 4 0
BBX 4 8 0 0
BITMAP
69
83
83
6A
06
02
02
02
ENDCHAR
STARTCHAR colon
ENCODING 58
SWIDTH 84 0
DWIDTH 1 0
BBX 1 4 0 1
BITMAP
40
00
00
40
ENDCHAR
STARTCHAR semicolon
ENCODING 59
SWIDTH 128 0
DWIDTH 2 0
BBX 2 9 0 -3
BITMAP
40
40
00
00
50
50
90
C0
40
ENDCHAR
STARTCHAR less
ENCODING 60
SWIDTH 487 0
DWIDTH 7 0
BBX 6 6 0 0
BITMAP
0020
0190
0A00
2400
B940
15A0
ENDCHAR
STARTCHAR equal
ENCODING 61
SWIDTH 524 0
DWIDTH 7 0
BBX 7 5 0 1
BITMAP
1554
5558
0000
6AA4
1550
ENDCHAR
STARTCHAR greater
ENCODING 62
SWIDTH 403 0
DWIDTH 6 0
BBX 6 7 0 0
BITMAP
4000
6800
06D0
0090
0640
1800
6000
ENDCHAR
STARTCHAR question
ENCODING 63
SWIDTH 272 0
DWIDTH 4 0
BBX 4 12 0 0
BITMAP
A8
05
06
09
0C
24
34
19
00
00
00
05
ENDCHAR
STARTCHAR at
ENCODING 64
SWIDTH 815 0
DWIDTH 11 0
BBX 11 13 0 0
BITMAP
005400
065A40
180060
200018
402A08
818188
820208
820308
5207A4
21A850
180000
064010
00AAA0
ENDCHAR
STARTCHAR A
ENCODING 65
SWIDTH 562 0
DWIDTH 8 0
BBX 8 11 0 0
BITMAP
0640
1460
2014
1008
5008
5009
AA99
5005
6005
2005
2009
ENDCHAR
STARTCHAR B
ENCODING 66
SWIDTH 741 0
DWIDTH 10 0
BBX 10 10 0 0
BITMAP
169000
5A5800
020500
021800
027900
024640
014050
018030
028030
01AA90
ENDCHAR
STARTCHAR C
ENCODING 67
SWIDTH 515 0
DWIDTH 7 0
BBX 7 9 0 0
BITMAP
02D0
0950
2000
5000
8000
8000
8000
6014
1F90
ENDCHAR
STARTCHAR D
ENCODING 68
SWIDTH 741 0
DWIDTH 10 0
BBX 10 9 0 0
BITMAP
6A9000
50D900
008280
009090
005020
005020
006060
0011D0
01EA40
ENDCHAR
STARTCHAR E
ENCODING 69
SWIDTH 524 0
DWIDTH 7 0
BBX 7 9 0 0
BITMAP
6AA0
9400
9000
9160
A940
8000
8000
8000
6FE4
ENDCHAR
STARTCHAR F
ENCODING 70
SWIDTH 514 0
DWIDTH 7 0
BBX 10 9 -1 0
BITMAP
055400
6BAA90
020000
020000
075400
079400
024000
024000
014000
ENDCHAR
STARTCHAR G
ENCODING 71
SWIDTH 571 0
DWIDTH 8 0
BBX 8 9 0 -1
BITMAP
0014
02A8
0900
2000
51AD
5005
6019
1A99
0006
ENDCHAR
STARTCHAR H
ENCODING 72
SWIDTH 524 0
DWIDTH 7 0
BBX 7 10 0 0
BITMAP
0004
4014
5014
5014
5064
6698
B818
2008
2008
1008
ENDCHAR
STARTCHAR I
ENCODING 73
SWIDTH 167 0
DWIDTH 2 0
BBX 2 8 0 0
BITMAP
40
80
50
20
20
20
20
20
ENDCHAR
STARTCHAR J
ENCODING 74
SWIDTH 439 0
DWIDTH 6 0
BBX 6 10 0 0
BITMAP
0040
0050
0050
0060
0020
8020
5020
2020
0920
0290
ENDCHAR
STARTCHAR K
ENCODING 75
SWIDTH 468 0
DWIDTH 7 0
BBX 6 8 0 0
BITMAP
8240
8A00
5800
6000
7400
6900
6280
2060
ENDCHAR
STARTCHAR L
ENCODING 76
SWIDTH 346 0
DWIDTH 5 0
BBX 5 8 0 0
BITMAP
1000
5000
5000
9000
8000
8000
9000
2F40
ENDCHAR
STARTCHAR M
ENCODING 77
SWIDTH 534 0
DWIDTH 7 0
BBX 7 9 0 0
BITMAP
4004
6028
3474
2BA4
2018
6018
6008
600C
1008
ENDCHAR
STARTCHAR N
ENCODING 78
SWIDTH 609 0
DWIDTH 9 0
BBX 8 8 0 0
BITMAP
4000
5008
6009
7002
6802
9902
9246
90A8
ENDCHAR
STARTCHAR O
ENCODING 79
SWIDTH 609 0
DWIDTH 9 0
BBX 8 7 0 0
BITMAP
1A40
6064
8009
8002
9002
3406
0AA4
ENDCHAR
STARTCHAR P
ENCODING 80
SWIDTH 627 0
DWIDTH 9 0
BBX 9 9 0 0
BITMAP
154000
A5A800
410600
020140
020240
02A900
019000
018000
008000
ENDCHAR
STARTCHAR Q
ENCODING 81
SWIDTH 642 0
DWIDTH 9 0
BBX 9 10 0 -2
BITMAP
054000
25A000
502800
901200
800140
509080
243600
0BFD00
000240
000080
ENDCHAR
STARTCHAR R
ENCODING 82
SWIDTH 579 0
DWIDTH 8 0
BBX 8 10 0 -1
BITMAP
6A90
8068
1409
146C
1F90
0D00
0A40
0890
0428
0005
ENDCHAR
STARTCHAR S
ENCODING 83
SWIDTH 627 0
DWIDTH 9 0
BBX 9 9 0 0
BITMAP
015000
095900
080000
090000
019000
001900
800240
600240
0AAA00
ENDCHAR
STARTCHAR T
ENCODING 84
SWIDTH 581 0
DWIDTH 8 0
BBX 9 9 0 0
BITMAP
500000
6AEA80
008040
008000
005000
005000
006000
002000
002400
ENDCHAR
STARTCHAR U
ENCODING 85
SWIDTH 571 0
DWIDTH 8 0
BBX 8 8 0 0
BITMAP
1000
8014
8018
8008
5008
600D
246A
0B81
ENDCHAR
STARTCHAR V
ENCODING 86
SWIDTH 421 0
DWIDTH 6 0
BBX 6 7 0 0
BITMAP
9060
6050
3490
18C0
0D80
0740
0200
ENDCHAR
STARTCHAR W
ENCODING 87
SWIDTH 703 0
DWIDTH 10 0
BBX 10 7 0 0
BITMAP
800040
8000C0
800090
808050
90C060
62A090
191F40
ENDCHAR
STARTCHAR X
ENCODING 88
SWIDTH 534 0
DWIDTH 7 0
BBX 7 8 0 -1
BITMAP
2018
0860
0680
0700
1A80
2090
5020
4000
ENDCHAR
STARTCHAR Y
ENCODING 89
SWIDTH 403 0
DWIDTH 6 0
BBX 6 9 0 0
BITMAP
8010
5050
2480
0B80
0240
0200
0200
0600
0600
ENDCHAR
STARTCHAR Z
ENCODING 90
SWIDTH 571 0
DWIDTH 8 0
BBX 8 9 0 0
BITMAP
6A00
5090
0020
0060
06F8
1680
0200
0505
07F9
ENDCHAR
STARTCHAR bracketleft
ENCODING 91
SWIDTH 477 0
DWIDTH 7 0
BBX 8 12 0 -2
BITMAP
01A4
6900
9000
6000
2000
2000
2000
1400
1400
1400
1EA9
0400
ENDCHAR
STARTCHAR backslash
ENCODING 92
SWIDTH 430 0
DWIDTH 6 0
BBX 6 8 0 0
BITMAP
4000
5000
2400
0D00
0700
0180
0090
0060
ENDCHAR
STARTCHAR bracketright
ENCODING 93
SWIDTH 430 0
DWIDTH 6 0
BBX 6 14 0 -2
BITMAP
6500
1680
0080
0090
0050
0050
0050
0010
0020
0020
0020
0020
2AA0
1550
ENDCHAR
STARTCHAR asciicircum
ENCODING 94
SWIDTH 375 0
DWIDTH 5 0
BBX 4 3 1 7
BITMAP
34
AD
45
ENDCHAR
STARTCHAR underscore
ENCODING 95
SWIDTH 656 0
DWIDTH 9 0
BBX 9 2 0 0
BITMAP
540000
16AF80
ENDCHAR
STARTCHAR grave
ENCODING 96
SWIDTH 172 0
DWIDTH 2 0
BBX 2 2 0 6
BITMAP
50
20
ENDCHAR
STARTCHAR a
ENCODING 97
SWIDTH 505 0
DWIDTH 7 0
BBX 7 7 0 0
BITMAP
0A40
0090
0530
69B4
8028
9014
2BE4
ENDCHAR
STARTCHAR b
ENCODING 98
SWIDTH 497 0
DWIDTH 7 0
BBX 7 9 0 0
BITMAP
8000
8000
9000
5000
6A40
31A0
2018
2418
1EA0
ENDCHAR
STARTCHAR c
ENCODING 99
SWIDTH 449 0
DWIDTH 6 0
BBX 6 6 0 0
BITMAP
1A80
6040
8000
8000
6000
1AA0
ENDCHAR
STARTCHAR d
ENCODING 100
SWIDTH 524 0
DWIDTH 7 0
BBX 7 10 0 0
BITMAP
0050
0070
0030
0024
2E64
60B8
9028
9038
619C
2E44
ENDCHAR
STARTCHAR e
ENCODING 101
SWIDTH 515 0
DWIDTH 7 0
BBX 7 8 0 0
BITMAP
0100
1A80
6080
8080
9A00
9000
2400
0BE4
ENDCHAR
STARTCHAR f
ENCODING 102
SWIDTH 376 0
DWIDTH 5 0
BBX 6 10 0 0
BITMAP
0690
0820
1000
2000
2000
6940
5D40
0800
0600
0200
ENDCHAR
STARTCHAR g
ENCODING 103
SWIDTH 366 0
DWIDTH 5 0
BBX 7 13 -2 -7
BITMAP
00A0
0254
0508
081C
0A6C
029C
000C
0008
0008
8008
9008
2918
06A0
ENDCHAR
STARTCHAR h
ENCODING 104
SWIDTH 427 0
DWIDTH 6 0
BBX 6 10 0 0
BITMAP
4000
8000
8000
9500
7B40
5080
6050
2050
2050
2050
ENDCHAR
STARTCHAR i
ENCODING 105
SWIDTH 174 0
DWIDTH 2 0
BBX 2 9 0 0
BITMAP
40
40
00
20
20
20
30
30
20
ENDCHAR
STARTCHAR j
ENCODING 106
SWIDTH 200 0
DWIDTH 3 0
BBX 5 14 -2 -6
BITMAP
0500
0000
0100
0200
0240
0240
0180
0080
00C0
4080
5080
2080
1880
0780
ENDCHAR
STARTCHAR k
ENCODING 107
SWIDTH 403 0
DWIDTH 6 0
BBX 6 9 0 0
BITMAP
4000
8000
8000
9200
5800
7400
7000
7900
52D0
ENDCHAR
STARTCHAR l
ENCODING 108
SWIDTH 120 0
DWIDTH 2 0
BBX 2 8 0 0
BITMAP
80
90
90
90
90
90
90
40
ENDCHAR
STARTCHAR m
ENCODING 109
SWIDTH 750 0
DWIDTH 11 0
BBX 10 6 0 0
BITMAP
590B80
B6A490
90A020
505020
502020
500020
ENDCHAR
STARTCHAR n
ENCODING 110
SWIDTH 459 0
DWIDTH 6 0
BBX 6 6 0 0
BITMAP
1A80
A090
9020
5020
6020
2020
ENDCHAR
STARTCHAR o
ENCODING 111
SWIDTH 487 0
DWIDTH 7 0
BBX 7 6 0 0
BITMAP
1AD0
6060
8014
8024
6070
1A80
ENDCHAR
STARTCHAR p
ENCODING 112
SWIDTH 520 0
DWIDTH 7 0
BBX 7 10 0 -5
BITMAP
1A90
6428
900C
A958
A690
6000
3000
3000
2400
1400
ENDCHAR
STARTCHAR q
ENCODING 113
SWIDTH 412 0
DWIDTH 6 0
BBX 6 12 0 -5
BITMAP
1A80
2090
9080
80C0
80C0
65C0
1AC0
0080
0080
0080
0080
0040
ENDCHAR
STARTCHAR r
ENCODING 114
SWIDTH 346 0
DWIDTH 5 0
BBX 5 7 0 0
BITMAP
0500
A680
8000
9000
5000
2000
2000
ENDCHAR
STARTCHAR s
ENCODING 115
SWIDTH 514 0
DWIDTH 7 0
BBX 7 7 0 0
BITMAP
0500
6580
5040
2A50
0064
5018
2AA4
ENDCHAR
STARTCHAR t
ENCODING 116
SWIDTH 328 0
DWIDTH 5 0
BBX 5 9 0 0
BITMAP
1800
1800
1800
BE40
1800
1800
0800
0800
0800
ENDCHAR
STARTCHAR u
ENCODING 117
SWIDTH 501 0
DWIDTH 7 0
BBX 7 7 0 0
BITMAP
8010
8030
8030
5070
20A4
1E58
0004
ENDCHAR
STARTCHAR v
ENCODING 118
SWIDTH 389 0
DWIDTH 5 0
BBX 5 5 0 0
BITMAP
9040
6180
2240
1A00
0900
ENDCHAR
STARTCHAR w
ENCODING 119
SWIDTH 656 0
DWIDTH 9 0
BBX 9 6 0 0
BITMAP
400000
804200
808180
809080
61E180
1E1A00
ENDCHAR
STARTCHAR x
ENCODING 120
SWIDTH 448 0
DWIDTH 6 0
BBX 6 7 0 -1
BITMAP
4010
90A0
2A40
0E00
2640
1090
0010
ENDCHAR
STARTCHAR y
ENCODING 121
SWIDTH 487 0
DWIDTH 7 0
BBX 7 13 0 -7
BITMAP
4010
8020
9024
6024
2478
0648
0008
0008
0014
0014
6020
2860
0680
ENDCHAR
STARTCHAR z
ENCODING 122
SWIDTH 459 0
DWIDTH 6 0
BBX 6 8 0 0
BITMAP
0400
AA40
0080
0140
6F90
0800
2410
2F90
ENDCHAR
STARTCHAR braceleft
ENCODING 123
SWIDTH 393 0
DWIDTH 6 0
BBX 6 15 0 -2
BITMAP
0140
2980
6000
8000
8000
2400
0B00
1A80
5180
0600
1800
2000
2000
2990
0540
ENDCHAR
STARTCHAR bar
ENCODING 124
SWIDTH 149 0
DWIDTH 2 0
BBX 2 9 0 0
BITMAP
40
80
50
50
20
20
20
20
20
ENDCHAR
STARTCHAR braceright
ENCODING 125
SWIDTH 440 0
DWIDTH 6 0
BBX 6 16 0 -3
BITMAP
AA40
50C0
00C0
0240
0800
1400
1F80
1800
0900
0200
0080
0050
0020
0020
8060
6A80
ENDCHAR
STARTCHAR asciitilde
ENCODING 126
SWIDTH 402 0
DWIDTH 6 0
BBX 5 2 0 6
BITMAP
2440
8640
ENDCHAR
STARTCHAR nonbreakingspace
ENCODING 160
SWIDTH 375 0
DWIDTH 5 0
BBX 1 1 0 0
BITMAP
00
ENDCHAR
STARTCHAR exclamdown
ENCODING 161
SWIDTH 149 0
DWIDTH 2 0
BBX 2 9 0 0
BITMAP
A0
00
00
50
50
50
50
50
50
ENDCHAR
STARTCHAR cent
ENCODING 162
SWIDTH 449 0
DWIDTH 6 0
BBX 6 8 0 -1
BITMAP
0500
2B80
5240
8200
8200
6200
2F90
0100
ENDCHAR
STARTCHAR sterling
ENCODING 163
SWIDTH 758 0
DWIDTH 11 0
BBX 10 10 0 0
BITMAP
000AA0
001420
002000
006500
0AFA40
005000
008000
008000
BBA800
B95400
ENDCHAR
STARTCHAR currency
ENCODING 164
SWIDTH 618 0
DWIDTH 9 0
BBX 8 8 0 0
BITMAP
4000
26FA
1D08
2402
2005
1818
2AA8
1004
ENDCHAR
STARTCHAR yen
ENCODING 165
SWIDTH 389 0
DWIDTH 5 0
BBX 6 10 0 0
BITMAP
6050
2080
1580
0A00
0600
6A40
0900
6E40
0800
0C00
ENDCHAR
STARTCHAR brokenbar
ENCODING 166
SWIDTH 117 0
DWIDTH 2 0
BBX 2 8 0 0
BITMAP
80
90
80
40
80
90
90
40
ENDCHAR
STARTCHAR section
ENCODING 167
SWIDTH 514 0
DWIDTH 7 0
BBX 7 10 0 0
BITMAP
0500
2A90
2024
2950
6568
500C
2AA8
0064
5018
1AA4
ENDCHAR
STARTCHAR dieresis
ENCODING 168
SWIDTH 397 0
DWIDTH 6 0
BBX 4 2 1 6
BITMAP
44
D9
ENDCHAR
STARTCHAR copyright
ENCODING 169
SWIDTH 667 0
DWIDTH 9 0
BBX 9 8 0 0
BITMAP
06A400
145900
226640
551080
580080
650080
25AA80
0BA900
ENDCHAR
STARTCHAR ordfeminine
ENCODING 170
SWIDTH 266 0
DWIDTH 4 0
BBX 4 4 0 3
BITMAP
14
18
45
54
ENDCHAR
STARTCHAR guillemotleft
ENCODING 171
SWIDTH 755 0
DWIDTH 11 0
BBX 10 7 0 0
BITMAP
000050
002680
019900
0AA000
25D400
B95A80
15A000
ENDCHAR
STARTCHAR logicalnot
ENCODING 172
SWIDTH 369 0
DWIDTH 5 0
BBX 5 3 0 3
BITMAP
6A80
0080
0040
ENDCHAR
STARTCHAR hyphen_
ENCODING 173
SWIDTH 375 0
DWIDTH 5 0
BBX 5 2 0 3
BITMAP
1540
6540
ENDCHAR
STARTCHAR registered
ENCODING 174
SWIDTH 708 0
DWIDTH 10 0
BBX 9 8 0 0
BITMAP
0AA400
255A00
295940
525880
529080
626080
291A40
06A400
ENDCHAR
STARTCHAR macron
ENCODING 175
SWIDTH 287 0
DWIDTH 4 0
BBX 4 2 0 6
BITMAP
19
55
ENDCHAR
STARTCHAR degree
ENCODING 176
SWIDTH 254 0
DWIDTH 4 0
BBX 3 4 0 4
BITMAP
64
44
44
64
ENDCHAR
STARTCHAR plusminus
ENCODING 177
SWIDTH 459 0
DWIDTH 6 0
BBX 6 7 0 0
BITMAP
0400
0900
0A50
6BA0
0200
0790
2550
ENDCHAR
STARTCHAR twosuperior
ENCODING 178
SWIDTH 296 0
DWIDTH 4 0
BBX 4 5 0 3
BITMAP
04
15
05
44
A9
ENDCHAR
STARTCHAR threesuperior
ENCODING 179
SWIDTH 204 0
DWIDTH 3 0
BBX 3 5 0 4
BITMAP
50
14
60
44
64
ENDCHAR
STARTCHAR acute
ENCODING 180
SWIDTH 180 0
DWIDTH 3 0
BBX 2 3 0 5
BITMAP
10
60
40
ENDCHAR
STARTCHAR mu
ENCODING 181
SWIDTH 501 0
DWIDTH 7 0
BBX 7 8 0 -1
BITMAP
4000
8020
8030
9030
A070
A9A4
8508
8000
ENDCHAR
STARTCHAR paragraph
ENCODING 182
SWIDTH 413 0
DWIDTH 6 0
BBX 6 7 0 0
BITMAP
3FC0
BF80
BF90
1690
0290
0290
0280
ENDCHAR
STARTCHAR periodcentered
ENCODING 183
SWIDTH 212 0
DWIDTH 3 0
BBX 2 2 1 2
BITMAP
D0
40
ENDCHAR
STARTCHAR cedilla
ENCODING 184
SWIDTH 445 0
DWIDTH 6 0
BBX 4 5 2 -5
BITMAP
80
64
06
66
14
ENDCHAR
STARTCHAR onesuperior
ENCODING 185
SWIDTH 197 0
DWIDTH 3 0
BBX 3 6 0 3
BITMAP
04
04
24
A4
20
10
ENDCHAR
STARTCHAR ordmasculine
ENCODING 186
SWIDTH 254 0
DWIDTH 4 0
BBX 3 4 0 4
BITMAP
64
44
44
64
ENDCHAR
STARTCHAR guillemotright
ENCODING 187
SWIDTH 659 0
DWIDTH 9 0
BBX 9 7 0 0
BITMAP
414000
696900
06D680
009640
065800
19A000
614000
ENDCHAR
STARTCHAR onequarter
ENCODING 188
SWIDTH 626 0
DWIDTH 9 0
BBX 8 11 0 0
BITMAP
0040
0080
0840
1940
5A00
1600
1640
0581
0886
0826
0402
ENDCHAR
STARTCHAR onehalf
ENCODING 189
SWIDTH 566 0
DWIDTH 8 0
BBX 8 11 0 -1
BITMAP
0440
0880
1880
6940
8954
1618
1604
0508
0944
09A9
0400
ENDCHAR
STARTCHAR threequarters
ENCODING 190
SWIDTH 566 0
DWIDTH 8 0
BBX 8 11 0 -1
BITMAP
0040
5480
1480
6440
4540
6A40
0241
0259
0515
0801
0400
ENDCHAR
STARTCHAR questiondown
ENCODING 191
SWIDTH 272 0
DWIDTH 4 0
BBX 4 11 0 -1
BITMAP
50
00
00
10
1C
18
30
50
90
65
05
ENDCHAR
STARTCHAR Agrave
ENCODING 192
SWIDTH 562 0
DWIDTH 8 0
BBX 8 13 0 0
BITMAP
0200
0180
0640
1460
2014
1008
5008
5009
AA99
5005
6005
2005
2009
ENDCHAR
STARTCHAR Aacute
ENCODING 193
SWIDTH 562 0
DWIDTH 8 0
BBX 8 13 0 0
BITMAP
0100
0900
0A40
1460
2014
1008
5008
5009
AA99
5005
6005
2005
2009
ENDCHAR
STARTCHAR Acircumflex
ENCODING 194
SWIDTH 562 0
DWIDTH 8 0
BBX 8 13 0 0
BITMAP
0340
0AC0
1A90
1460
2014
1008
5008
5009
AA99
5005
6005
2005
2009
ENDCHAR
STARTCHAR Atilde
ENCODING 195
SWIDTH 562 0
DWIDTH 8 0
BBX 8 13 0 0
BITMAP
1810
2290
0640
1460
2014
1008
5008
5009
AA99
5005
6005
2005
2009
ENDCHAR
STARTCHAR Adieresis
ENCODING 196
SWIDTH 562 0
DWIDTH 8 0
BBX 8 13 0 0
BITMAP
0440
0D90
0640
1460
2014
1008
5008
5009
AA99
5005
6005
2005
2009
ENDCHAR
STARTCHAR Aring
ENCODING 197
SWIDTH 562 0
DWIDTH 8 0
BBX 8 13 0 0
BITMAP
0540
0480
0B80
1460
2014
1008
5008
5009
AA99
5005
6005
2005
2009
ENDCHAR
STARTCHAR AE
ENCODING 198
SWIDTH 960 0
DWIDTH 13 0
BBX 13 11 0 0
BITMAP
06400000
14600000
2016AA40
100A0000
500A0000
500A1640
AA9B9500
50060000
60050000
20060140
200AFF80
ENDCHAR
STARTCHAR Ccedilla
ENCODING 199
SWIDTH 515 0
DWIDTH 7 0
BBX 7 14 0 -5
BITMAP
02D0
0950
2000
5000
8000
8000
8000
6014
1F90
0800
0640
0050
0990
0100
ENDCHAR
STARTCHAR Egrave
ENCODING 200
SWIDTH 524 0
DWIDTH 7 0
BBX 7 11 0 0
BITMAP
0500
0140
6AA0
9400
9000
9160
A940
8000
8000
8000
6FE4
ENDCHAR
STARTCHAR Eacute
ENCODING 201
SWIDTH 524 0
DWIDTH 7 0
BBX 7 11 0 0
BITMAP
0140
0600
6EA0
9400
9000
9160
A940
8000
8000
8000
6FE4
ENDCHAR
STARTCHAR Ecircumflex
ENCODING 202
SWIDTH 524 0
DWIDTH 7 0
BBX 7 12 0 0
BITMAP
0280
06D0
0410
6AA0
9400
9000
9160
A940
8000
8000
8000
6FE4
ENDCHAR
STARTCHAR Edieresis
ENCODING 203
SWIDTH 524 0
DWIDTH 7 0
BBX 7 11 0 0
BITMAP
0440
0CD0
6AA0
9400
9000
9160
A940
8000
8000
8000
6FE4
ENDCHAR
STARTCHAR Igrave
ENCODING 204
SWIDTH 167 0
DWIDTH 2 0
BBX 2 11 0 0
BITMAP
80
50
00
40
80
50
20
20
20
20
20
ENDCHAR
STARTCHAR Iacute
ENCODING 205
SWIDTH 167 0
DWIDTH 2 0
BBX 2 11 0 0
BITMAP
10
90
00
40
80
50
20
20
20
20
20
ENDCHAR
STARTCHAR Icircumflex
ENCODING 206
SWIDTH 167 0
DWIDTH 2 0
BBX 4 12 -1 0
BITMAP
1C
2A
51
00
10
20
14
08
08
08
08
08
ENDCHAR
STARTCHAR Idieresis
ENCODING 207
SWIDTH 167 0
DWIDTH 2 0
BBX 4 10 -2 0
BITMAP
11
63
04
08
05
02
02
02
02
02
ENDCHAR
STARTCHAR Eth
ENCODING 208
SWIDTH 741 0
DWIDTH 10 0
BBX 10 9 0 0
BITMAP
6A9000
50D900
008280
009090
02E920
005020
006060
0051D0
01EA40
ENDCHAR
STARTCHAR Ntilde
ENCODING 209
SWIDTH 609 0
DWIDTH 9 0
BBX 8 10 0 0
BITMAP
0504
08A0
4000
5008
6009
7002
6802
9902
9246
90A8
ENDCHAR
STARTCHAR Ograve
ENCODING 210
SWIDTH 609 0
DWIDTH 9 0
BBX 8 10 0 0
BITMAP
0140
0090
0000
1A40
6064
8009
8002
9002
3406
0AA4
ENDCHAR
STARTCHAR Oacute
ENCODING 211
SWIDTH 609 0
DWIDTH 9 0
BBX 8 10 0 0
BITMAP
0040
0240
0100
1A40
6064
8009
8002
9002
3406
0AA4
ENDCHAR
STARTCHAR Ocircumflex
ENCODING 212
SWIDTH 609 0
DWIDTH 9 0
BBX 8 10 0 0
BITMAP
0700
1A80
1040
1A40
6064
8009
8002
9002
3406
0AA4
ENDCHAR
STARTCHAR Otilde
ENCODING 213
SWIDTH 609 0
DWIDTH 9 0
BBX 8 10 0 0
BITMAP
1810
2290
0000
1A40
6064
8009
8002
9002
3406
0AA4
ENDCHAR
STARTCHAR Odieresis
ENCODING 214
SWIDTH 609 0
DWIDTH 9 0
BBX 8 10 0 0
BITMAP
0110
0670
0000
1A40
6064
8009
8002
9002
3406
0AA4
ENDCHAR
STARTCHAR multiply
ENCODING 215
SWIDTH 448 0
DWIDTH 6 0
BBX 4 4 1 1
BITMAP
41
A9
38
99
ENDCHAR
STARTCHAR Oslash
ENCODING 216
SWIDTH 609 0
DWIDTH 9 0
BBX 8 10 0 -1
BITMAP
0020
0050
1A90
61E4
8189
8242
9302
3A06
0EA4
0800
ENDCHAR
STARTCHAR Ugrave
ENCODING 217
SWIDTH 571 0
DWIDTH 8 0
BBX 8 10 0 0
BITMAP
0140
0080
1000
8014
8018
8008
5008
600D
246A
0B81
ENDCHAR
STARTCHAR Uacute
ENCODING 218
SWIDTH 571 0
DWIDTH 8 0
BBX 8 10 0 0
BITMAP
0040
0240
1000
8014
8018
8008
5008
600D
246A
0B81
ENDCHAR
STARTCHAR Ucircumflex
ENCODING 219
SWIDTH 571 0
DWIDTH 8 0
BBX 8 12 0 0
BITMAP
0180
06A0
0410
0000
1000
8014
8018
8008
5008
600D
246A
0B81
ENDCHAR
STARTCHAR Udieresis
ENCODING 220
SWIDTH 571 0
DWIDTH 8 0
BBX 8 9 0 0
BITMAP
0960
1000
8014
8018
8008
5008
600D
246A
0B81
ENDCHAR
STARTCHAR Yacute
ENCODING 221
SWIDTH 403 0
DWIDTH 6 0
BBX 6 12 0 0
BITMAP
0040
0600
0400
8010
5050
2480
0B80
0240
0200
0200
0600
0600
ENDCHAR
STARTCHAR Thorn
ENCODING 222
SWIDTH 497 0
DWIDTH 7 0
BBX 7 11 0 -2
BITMAP
1000
6000
6000
5000
6A40
71A0
2018
3418
3AA0
2000
2000
ENDCHAR
STARTCHAR germandbls
ENCODING 223
SWIDTH 590 0
DWIDTH 8 0
BBX 8 12 0 -2
BITMAP
2900
A580
9090
5180
6780
2064
2009
2003
2016
22A4
3000
2000
ENDCHAR
STARTCHAR agrave
ENCODING 224
SWIDTH 505 0
DWIDTH 7 0
BBX 7 9 0 0
BITMAP
0500
0200
0A40
0090
0530
69B4
8028
9014
2BE4
ENDCHAR
STARTCHAR aacute
ENCODING 225
SWIDTH 505 0
DWIDTH 7 0
BBX 7 10 0 0
BITMAP
0140
0600
0400
0A40
0090
0530
69B4
8028
9014
2BE4
ENDCHAR
STARTCHAR acircumflex
ENCODING 226
SWIDTH 505 0
DWIDTH 7 0
BBX 7 10 0 0
BITMAP
0340
0AD0
0450
0A40
0090
0530
69B4
8028
9014
2BE4
ENDCHAR
STARTCHAR atilde
ENCODING 227
SWIDTH 505 0
DWIDTH 7 0
BBX 7 10 0 0
BITMAP
1410
2290
0000
0A40
0090
0530
69B4
8028
9014
2BE4
ENDCHAR
STARTCHAR adieresis
ENCODING 228
SWIDTH 505 0
DWIDTH 7 0
BBX 7 10 0 0
BITMAP
0440
0CD0
0000
0A40
0090
0530
69B4
8028
9014
2BE4
ENDCHAR
STARTCHAR aring
ENCODING 229
SWIDTH 505 0
DWIDTH 7 0
BBX 7 9 0 0
BITMAP
0540
0540
0B40
0090
0530
69B4
8028
9014
2BE4
ENDCHAR
STARTCHAR ae
ENCODING 230
SWIDTH 881 0
DWIDTH 12 0
BBX 12 8 0 -1
BITMAP
0A42A0
009914
053814
69B9A0
801900
901800
2BE6A9
000014
ENDCHAR
STARTCHAR ccedilla
ENCODING 231
SWIDTH 449 0
DWIDTH 6 0
BBX 6 10 0 -4
BITMAP
1A80
6040
8000
8000
6000
1EA0
0800
0640
0050
0A90
ENDCHAR
STARTCHAR egrave
ENCODING 232
SWIDTH 515 0
DWIDTH 7 0
BBX 7 10 0 0
BITMAP
0800
0200
0100
1A80
6080
8080
9A00
9000
2400
0BE4
ENDCHAR
STARTCHAR eacute
ENCODING 233
SWIDTH 515 0
DWIDTH 7 0
BBX 7 10 0 0
BITMAP
0100
0900
0500
1A80
6080
8080
9A00
9000
2400
0BE4
ENDCHAR
STARTCHAR ecircumflex
ENCODING 234
SWIDTH 515 0
DWIDTH 7 0
BBX 7 10 0 0
BITMAP
0240
0AD0
0950
1A80
6080
8080
9A00
9000
2400
0BE4
ENDCHAR
STARTCHAR edieresis
ENCODING 235
SWIDTH 515 0
DWIDTH 7 0
BBX 7 9 0 0
BITMAP
0440
1DC0
1A80
6080
8080
9A00
9000
2400
0BE4
ENDCHAR
STARTCHAR igrave
ENCODING 236
SWIDTH 174 0
DWIDTH 2 0
BBX 2 9 0 0
BITMAP
40
60
10
20
20
20
30
30
20
ENDCHAR
STARTCHAR iacute
ENCODING 237
SWIDTH 174 0
DWIDTH 2 0
BBX 2 9 0 0
BITMAP
10
90
40
20
20
20
30
30
20
ENDCHAR
STARTCHAR icircumflex
ENCODING 238
SWIDTH 174 0
DWIDTH 2 0
BBX 4 10 -1 0
BITMAP
1C
2B
51
00
08
08
08
0C
0C
08
ENDCHAR
STARTCHAR idieresis
ENCODING 239
SWIDTH 174 0
DWIDTH 2 0
BBX 4 8 -1 0
BITMAP
A6
00
08
08
08
0C
0C
08
ENDCHAR
STARTCHAR eth
ENCODING 240
SWIDTH 407 0
DWIDTH 6 0
BBX 6 8 0 0
BITMAP
1000
5950
0BC0
0480
2AD0
9050
9050
2A80
ENDCHAR
STARTCHAR ntilde
ENCODING 241
SWIDTH 459 0
DWIDTH 6 0
BBX 6 9 0 0
BITMAP
2440
8680
0000
1A80
A090
9020
5020
6020
2020
ENDCHAR
STARTCHAR ograve
ENCODING 242
SWIDTH 487 0
DWIDTH 7 0
BBX 7 8 0 0
BITMAP
0500
0140
1AD0
6060
8014
8024
6070
1A80
ENDCHAR
STARTCHAR oacute
ENCODING 243
SWIDTH 487 0
DWIDTH 7 0
BBX 7 9 0 0
BITMAP
0100
0600
0400
1AD0
6060
8014
8024
6070
1A80
ENDCHAR
STARTCHAR ocircumflex
ENCODING 244
SWIDTH 487 0
DWIDTH 7 0
BBX 7 9 0 0
BITMAP
0340
0AC0
1440
1AD0
6060
8014
8024
6070
1A80
ENDCHAR
STARTCHAR otilde
ENCODING 245
SWIDTH 487 0
DWIDTH 7 0
BBX 7 8 0 0
BITMAP
1410
2290
1AD0
6060
8014
8024
6070
1A80
ENDCHAR
STARTCHAR odieresis
ENCODING 246
SWIDTH 487 0
DWIDTH 7 0
BBX 7 8 0 0
BITMAP
0440
1CC0
1AD0
6060
8014
8024
6070
1A80
ENDCHAR
STARTCHAR divide
ENCODING 247
SWIDTH 335 0
DWIDTH 5 0
BBX 4 4 0 1
BITMAP
04
6A
00
04
ENDCHAR
STARTCHAR oslash
ENCODING 248
SWIDTH 487 0
DWIDTH 7 0
BBX 7 6 0 0
BITMAP
0AD0
25A0
8214
8924
6870
3A80
ENDCHAR
STARTCHAR ugrave
ENCODING 249
SWIDTH 501 0
DWIDTH 7 0
BBX 7 10 0 0
BITMAP
0800
0600
0000
8010
8030
8030
5070
20A4
1E58
0004
ENDCHAR
STARTCHAR uacute
ENCODING 250
SWIDTH 501 0
DWIDTH 7 0
BBX 7 10 0 0
BITMAP
0140
0600
0400
8010
8030
8030
5070
20A4
1E58
0004
ENDCHAR
STARTCHAR ucircumflex
ENCODING 251
SWIDTH 501 0
DWIDTH 7 0
BBX 7 10 0 0
BITMAP
0340
0AD0
0450
8010
8030
8030
5070
20A4
1E58
0004
ENDCHAR
STARTCHAR udieresis
ENCODING 252
SWIDTH 501 0
DWIDTH 7 0
BBX 7 9 0 0
BITMAP
0040
1980
8010
8030
8030
5070
20A4
1E58
0004
ENDCHAR
STARTCHAR yacute
ENCODING 253
SWIDTH 487 0
DWIDTH 7 0
BBX 7 17 0 -7
BITMAP
0100
0600
0400
0000
4010
8020
9024
6024
2478
0648
0008
0008
0014
0014
6020
2860
0680
ENDCHAR
STARTCHAR thorn
ENCODING 254
SWIDTH 520 0
DWIDTH 7 0
BBX 7 10 0 -3
BITMAP
5000
5000
6AA0
6008
900C
BAA8
9140
9000
9000
5000
ENDCHAR
STARTCHAR ydieresis
ENCODING 255
SWIDTH 487 0
DWIDTH 7 0
BBX 7 16 0 -7
BITMAP
0440
19C0
0000
4010
8020
9024
6024
2478
0648
0008
0008
0014
0014
6020
2860
0680
ENDCHAR
STARTCHAR Amacron
ENCODING 256
SWIDTH 562 0
DWIDTH 8 0
BBX 8 13 0 0
BITMAP
0680
0540
0640
1460
2014
1008
5008
5009
AA99
5005
6005
2005
2009
ENDCHAR
STARTCHAR amacron
ENCODING 257
SWIDTH 505 0
DWIDTH 7 0
BBX 7 10 0 0
BITMAP
0640
1540
0000
0A40
0090
0530
69B4
8028
9014
2BE4
ENDCHAR
STARTCHAR Abreve
ENCODING 258
SWIDTH 562 0
DWIDTH 8 0
BBX 8 13 0 0
BITMAP
0580
0140
0640
1460
2014
1008
5008
5009
AA99
5005
6005
2005
2009
ENDCHAR
STARTCHAR abreve
ENCODING 259
SWIDTH 505 0
DWIDTH 7 0
BBX 7 9 0 0
BITMAP
0940
0100
0A40
0090
0530
69B4
8028
9014
2BE4
ENDCHAR
STARTCHAR Aogonek
ENCODING 260
SWIDTH 562 0
DWIDTH 8 0
BBX 8 13 0 -2
BITMAP
0640
1460
2014
1008
5008
5009
AA99
5005
6005
2005
2009
0020
0029
ENDCHAR
STARTCHAR aogonek
ENCODING 261
SWIDTH 505 0
DWIDTH 7 0
BBX 7 9 0 -2
BITMAP
0A40
0090
0530
69B4
8028
9014
2BE4
0080
0054
ENDCHAR
STARTCHAR Cacute
ENCODING 262
SWIDTH 515 0
DWIDTH 7 0
BBX 7 12 0 0
BITMAP
0040
0240
0100
02D0
0950
2000
5000
8000
8000
8000
6014
1F90
ENDCHAR
STARTCHAR cacute
ENCODING 263
SWIDTH 449 0
DWIDTH 6 0
BBX 6 10 0 0
BITMAP
0140
0600
0400
0000
1A80
6040
8000
8000
6000
1AA0
ENDCHAR
STARTCHAR Ccircumflex
ENCODING 264
SWIDTH 515 0
DWIDTH 7 0
BBX 7 12 0 0
BITMAP
0240
0AD0
0450
02D0
0950
2000
5000
8000
8000
8000
6014
1F90
ENDCHAR
STARTCHAR ccircumflex
ENCODING 265
SWIDTH 449 0
DWIDTH 6 0
BBX 6 10 0 0
BITMAP
0700
0A80
1040
0000
1A80
6040
8000
8000
6000
1AA0
ENDCHAR
STARTCHAR Cdotaccent
ENCODING 266
SWIDTH 515 0
DWIDTH 7 0
BBX 7 11 0 0
BITMAP
0100
0100
02D0
0950
2000
5000
8000
8000
8000
6014
1F90
ENDCHAR
STARTCHAR cdotaccent
ENCODING 267
SWIDTH 449 0
DWIDTH 6 0
BBX 6 8 0 0
BITMAP
0500
0100
1A80
6040
8000
8000
6000
1AA0
ENDCHAR
STARTCHAR Ccaron
ENCODING 268
SWIDTH 515 0
DWIDTH 7 0
BBX 7 12 0 0
BITMAP
0510
01D0
0000
02D0
0950
2000
5000
8000
8000
8000
6014
1F90
ENDCHAR
STARTCHAR ccaron
ENCODING 269
SWIDTH 449 0
DWIDTH 6 0
BBX 6 9 0 0
BITMAP
1440
0B40
0000
1A80
6040
8000
8000
6000
1AA0
ENDCHAR
STARTCHAR Dcaron
ENCODING 270
SWIDTH 741 0
DWIDTH 10 0
BBX 10 11 0 0
BITMAP
014400
007400
6A9000
50D900
008280
009090
005020
005020
006060
0011D0
01EA40
ENDCHAR
STARTCHAR dcaron
ENCODING 271
SWIDTH 582 0
DWIDTH 8 0
BBX 8 10 0 0
BITMAP
0052
0072
0032
0024
2E64
60B8
9028
9038
619C
2E44
ENDCHAR
STARTCHAR Dcroat
ENCODING 272
SWIDTH 741 0
DWIDTH 10 0
BBX 10 9 0 0
BITMAP
6A9000
50D900
008280
008090
02F420
016020
006060
0011D0
01EA40
ENDCHAR
STARTCHAR dcroat
ENCODING 273
SWIDTH 524 0
DWIDTH 7 0
BBX 8 10 0 0
BITMAP
0050
0074
02B9
0424
3FA8
6078
9028
9038
619C
2E44
ENDCHAR
STARTCHAR Emacron
ENCODING 274
SWIDTH 524 0
DWIDTH 7 0
BBX 7 11 0 0
BITMAP
0680
0540
6AA0
9400
9000
9160
A940
8000
8000
8000
6FE4
ENDCHAR
STARTCHAR emacron
ENCODING 275
SWIDTH 515 0
DWIDTH 7 0
BBX 7 10 0 0
BITMAP
0680
0540
0100
1A80
6080
8080
9A00
9000
2400
0BE4
ENDCHAR
STARTCHAR Ebreve
ENCODING 276
SWIDTH 524 0
DWIDTH 7 0
BBX 7 11 0 0
BITMAP
0580
0100
6AA0
9400
9000
9160
A940
8000
8000
8000
6FE4
ENDCHAR
STARTCHAR ebreve
ENCODING 277
SWIDTH 515 0
DWIDTH 7 0
BBX 7 9 0 0
BITMAP
0580
0140
1A80
6080
8080
9A00
9000
2400
0BE4
ENDCHAR
STARTCHAR Edotaccent
ENCODING 278
SWIDTH 524 0
DWIDTH 7 0
BBX 7 11 0 0
BITMAP
0200
0100
6AA0
9400
9000
9160
A940
8000
8000
8000
6FE4
ENDCHAR
STARTCHAR edotaccent
ENCODING 279
SWIDTH 515 0
DWIDTH 7 0
BBX 7 10 0 0
BITMAP
0500
0100
0100
1A80
6080
8080
9A00
9000
2400
0BE4
ENDCHAR
STARTCHAR Eogonek
ENCODING 280
SWIDTH 524 0
DWIDTH 7 0
BBX 7 11 0 -2
BITMAP
6AA0
9400
9000
9160
A940
8000
8000
8000
6FF4
0180
0090
ENDCHAR
STARTCHAR eogonek
ENCODING 281
SWIDTH 515 0
DWIDTH 7 0
BBX 7 10 0 -2
BITMAP
0100
1A80
6080
8080
9A00
9000
2400
0BE4
0140
0190
ENDCHAR
STARTCHAR Ecaron
ENCODING 282
SWIDTH 524 0
DWIDTH 7 0
BBX 7 11 0 0
BITMAP
0450
0280
6AA0
9400
9000
9160
A940
8000
8000
8000
6FE4
ENDCHAR
STARTCHAR ecaron
ENCODING 283
SWIDTH 515 0
DWIDTH 7 0
BBX 7 10 0 0
BITMAP
0450
0680
0100
1A80
6080
8080
9A00
9000
2400
0BE4
ENDCHAR
STARTCHAR Gcircumflex
ENCODING 284
SWIDTH 571 0
DWIDTH 8 0
BBX 8 12 0 -1
BITMAP
0070
00A8
0104
0014
02A8
0900
2000
51AD
5005
6019
1A99
0006
ENDCHAR
STARTCHAR gcircumflex
ENCODING 285
SWIDTH 366 0
DWIDTH 5 0
BBX 7 17 -2 -7
BITMAP
00D0
02B4
0114
0000
00A0
0254
0508
081C
0A6C
029C
000C
0008
0008
8008
9008
2918
06A0
ENDCHAR
STARTCHAR Gbreve
ENCODING 286
SWIDTH 571 0
DWIDTH 8 0
BBX 8 10 0 -1
BITMAP
0190
0154
02A8
0900
2000
51AD
5005
6019
1A99
0006
ENDCHAR
STARTCHAR gbreve
ENCODING 287
SWIDTH 366 0
DWIDTH 5 0
BBX 7 15 -2 -7
BITMAP
0160
0040
00A0
0254
0508
081C
0A6C
029C
000C
0008
0008
8008
9008
2918
06A0
ENDCHAR
STARTCHAR Gdotaccent
ENCODING 288
SWIDTH 571 0
DWIDTH 8 0
BBX 8 10 0 -1
BITMAP
0040
0054
02A8
0900
2000
51AD
5005
6019
1A99
0006
ENDCHAR
STARTCHAR gdotaccent
ENCODING 289
SWIDTH 366 0
DWIDTH 5 0
BBX 7 15 -2 -7
BITMAP
0080
0040
00A0
0254
0508
081C
0A6C
029C
000C
0008
0008
8008
9008
2918
06A0
ENDCHAR
STARTCHAR Gcommaaccent
ENCODING 290
SWIDTH 571 0
DWIDTH 8 0
BBX 8 13 0 -5
BITMAP
0014
02A8
0900
2000
51AD
5005
6019
1A99
0006
0100
0140
0140
0100
ENDCHAR
STARTCHAR gcommaaccent
ENCODING 291
SWIDTH 366 0
DWIDTH 5 0
BBX 7 19 -2 -7
BITMAP
0080
0080
0080
0000
0000
0000
00A0
0254
0508
081C
0A6C
029C
000C
0008
0008
8008
9008
2918
06A0
ENDCHAR
STARTCHAR Hcircumflex
ENCODING 292
SWIDTH 524 0
DWIDTH 7 0
BBX 7 13 0 0
BITMAP
0240
0AD0
0450
0004
4014
5014
5014
5064
6698
B818
2008
2008
1008
ENDCHAR
STARTCHAR hcircumflex
ENCODING 293
SWIDTH 427 0
DWIDTH 6 0
BBX 6 11 0 0
BITMAP
0700
4A80
9440
8000
9500
7B40
5080
6050
2050
2050
2050
ENDCHAR
STARTCHAR hbar
ENCODING 295
SWIDTH 427 0
DWIDTH 6 0
BBX 7 10 -1 0
BITMAP
1000
2000
B900
6540
1ED0
1420
1814
0814
0814
0814
ENDCHAR
STARTCHAR Itilde
ENCODING 296
SWIDTH 167 0
DWIDTH 2 0
BBX 5 10 -1 0
BITMAP
5040
8A00
1000
2000
1400
0800
0800
0800
0800
0800
ENDCHAR
STARTCHAR itilde
ENCODING 297
SWIDTH 174 0
DWIDTH 2 0
BBX 5 9 -1 0
BITMAP
6980
4100
0000
0800
0800
0800
0C00
0C00
0800
ENDCHAR
STARTCHAR imacron
ENCODING 299
SWIDTH 174 0
DWIDTH 2 0
BBX 4 9 -1 0
BITMAP
15
55
00
08
08
08
0C
0C
08
ENDCHAR
STARTCHAR Ibreve
ENCODING 300
SWIDTH 167 0
DWIDTH 2 0
BBX 3 11 0 0
BITMAP
54
10
00
40
80
50
20
20
20
20
20
ENDCHAR
STARTCHAR ibreve
ENCODING 301
SWIDTH 174 0
DWIDTH 2 0
BBX 2 8 0 0
BITMAP
A0
00
20
20
20
30
30
20
ENDCHAR
STARTCHAR Iogonek
ENCODING 302
SWIDTH 167 0
DWIDTH 2 0
BBX 3 10 0 -2
BITMAP
40
80
50
20
20
20
20
70
80
A4
ENDCHAR
STARTCHAR iogonek
ENCODING 303
SWIDTH 174 0
DWIDTH 2 0
BBX 3 11 0 -2
BITMAP
40
40
00
20
20
20
30
30
70
80
94
ENDCHAR
STARTCHAR Idotaccent
ENCODING 304
SWIDTH 167 0
DWIDTH 2 0
BBX 2 11 0 0
BITMAP
40
40
00
40
80
50
20
20
20
20
20
ENDCHAR
STARTCHAR dotlessi
ENCODING 305
SWIDTH 174 0
DWIDTH 2 0
BBX 1 6 1 0
BITMAP
80
80
80
C0
C0
80
ENDCHAR
STARTCHAR Jcircumflex
ENCODING 308
SWIDTH 439 0
DWIDTH 6 0
BBX 7 13 0 0
BITMAP
00D0
02B4
0114
0040
0050
0050
0060
0020
8020
5020
2020
0920
0290
ENDCHAR
STARTCHAR jcircumflex
ENCODING 309
SWIDTH 200 0
DWIDTH 3 0
BBX 6 16 -2 -6
BITMAP
0340
0AC0
1450
0000
0100
0200
0240
0240
0180
0080
00C0
4080
5080
2080
1880
0780
ENDCHAR
STARTCHAR Kcommaaccent
ENCODING 310
SWIDTH 468 0
DWIDTH 7 0
BBX 6 12 0 -4
BITMAP
8240
8A00
5800
6000
7400
6900
6280
2060
0000
0100
0200
0600
ENDCHAR
STARTCHAR kcommaaccent
ENCODING 311
SWIDTH 403 0
DWIDTH 6 0
BBX 6 14 0 -5
BITMAP
4000
8000
8000
9200
5800
7400
7000
7900
52D0
0000
0400
0900
0900
0400
ENDCHAR
STARTCHAR Lacute
ENCODING 313
SWIDTH 346 0
DWIDTH 5 0
BBX 5 11 0 0
BITMAP
0100
0900
0400
1000
5000
5000
9000
8000
8000
9000
2F40
ENDCHAR
STARTCHAR lacute
ENCODING 314
SWIDTH 120 0
DWIDTH 2 0
BBX 2 11 0 0
BITMAP
10
90
40
80
90
90
90
90
90
90
40
ENDCHAR
STARTCHAR Lcommaaccent
ENCODING 315
SWIDTH 346 0
DWIDTH 5 0
BBX 5 13 0 -5
BITMAP
1000
5000
5000
9000
8000
8000
9000
2F40
0000
0400
0800
0800
0400
ENDCHAR
STARTCHAR lcommaaccent
ENCODING 316
SWIDTH 120 0
DWIDTH 2 0
BBX 2 13 0 -5
BITMAP
80
90
90
90
90
90
90
40
00
40
90
90
40
ENDCHAR
STARTCHAR Lcaron
ENCODING 317
SWIDTH 346 0
DWIDTH 5 0
BBX 5 10 0 0
BITMAP
0800
0900
1500
5000
5000
9000
8000
8000
9000
2F40
ENDCHAR
STARTCHAR lcaron
ENCODING 318
SWIDTH 222 0
DWIDTH 3 0
BBX 3 10 0 0
BITMAP
08
08
88
90
90
90
90
90
90
40
ENDCHAR
STARTCHAR Ldot
ENCODING 319
SWIDTH 346 0
DWIDTH 5 0
BBX 5 8 0 0
BITMAP
1000
5000
5000
9000
9C00
8400
9000
2F40
ENDCHAR
STARTCHAR ldot
ENCODING 320
SWIDTH 333 0
DWIDTH 5 0
BBX 4 8 0 0
BITMAP
80
90
90
90
97
95
90
40
ENDCHAR
STARTCHAR Lslash
ENCODING 321
SWIDTH 346 0
DWIDTH 5 0
BBX 5 8 0 0
BITMAP
1000
2000
3000
2000
3800
A000
2400
1BC0
ENDCHAR
STARTCHAR lslash
ENCODING 322
SWIDTH 120 0
DWIDTH 2 0
BBX 4 8 -1 0
BITMAP
14
14
18
29
A4
14
14
14
ENDCHAR
STARTCHAR Nacute
ENCODING 323
SWIDTH 609 0
DWIDTH 9 0
BBX 8 10 0 0
BITMAP
0040
0240
4100
5008
6009
7002
6802
9902
9246
90A8
ENDCHAR
STARTCHAR nacute
ENCODING 324
SWIDTH 459 0
DWIDTH 6 0
BBX 6 10 0 0
BITMAP
0100
0900
0000
0000
1A80
A090
9020
5020
6020
2020
ENDCHAR
STARTCHAR Ncommaaccent
ENCODING 325
SWIDTH 609 0
DWIDTH 9 0
BBX 8 12 0 -4
BITMAP
4000
5008
6009
7002
6802
9902
9246
90A8
0000
0040
0080
0180
ENDCHAR
STARTCHAR ncommaaccent
ENCODING 326
SWIDTH 459 0
DWIDTH 6 0
BBX 6 10 0 -4
BITMAP
1A80
A090
9020
5020
6020
2020
0000
0100
0600
0600
ENDCHAR
STARTCHAR Ncaron
ENCODING 327
SWIDTH 609 0
DWIDTH 9 0
BBX 8 11 0 0
BITMAP
0510
01D0
0000
4000
5008
6009
7002
6802
9902
9246
90A8
ENDCHAR
STARTCHAR ncaron
ENCODING 328
SWIDTH 459 0
DWIDTH 6 0
BBX 6 9 0 0
BITMAP
1440
0740
0000
1A80
A090
9020
5020
6020
2020
ENDCHAR
STARTCHAR napostrophe
ENCODING 329
SWIDTH 459 0
DWIDTH 6 0
BBX 6 10 0 0
BITMAP
1000
2400
2000
1000
1A80
A090
9020
5020
6020
2020
ENDCHAR
STARTCHAR Omacron
ENCODING 332
SWIDTH 609 0
DWIDTH 9 0
BBX 8 10 0 0
BITMAP
0190
0550
0000
1A40
6064
8009
8002
9002
3406
0AA4
ENDCHAR
STARTCHAR omacron
ENCODING 333
SWIDTH 487 0
DWIDTH 7 0
BBX 7 8 0 0
BITMAP
0680
0540
1AD0
6060
8014
8024
6070
1A80
ENDCHAR
STARTCHAR Obreve
ENCODING 334
SWIDTH 609 0
DWIDTH 9 0
BBX 8 9 0 0
BITMAP
0250
0040
1A40
6064
8009
8002
9002
3406
0AA4
ENDCHAR
STARTCHAR obreve
ENCODING 335
SWIDTH 487 0
DWIDTH 7 0
BBX 7 8 0 0
BITMAP
1600
0500
1AD0
6060
8014
8024
6070
1A80
ENDCHAR
STARTCHAR Ohungarumlaut
ENCODING 336
SWIDTH 609 0
DWIDTH 9 0
BBX 8 10 0 0
BITMAP
0250
0580
0000
1A40
6064
8009
8002
9002
3406
0AA4
ENDCHAR
STARTCHAR ohungarumlaut
ENCODING 337
SWIDTH 487 0
DWIDTH 7 0
BBX 7 8 0 0
BITMAP
0940
1640
1AD0
6060
8014
8024
6070
1A80
ENDCHAR
STARTCHAR OE
ENCODING 338
SWIDTH 848 0
DWIDTH 12 0
BBX 12 7 0 0
BITMAP
1A5AA4
61B400
807404
803994
502000
243000
0AAAA9
ENDCHAR
STARTCHAR oe
ENCODING 339
SWIDTH 875 0
DWIDTH 12 0
BBX 12 8 0 -1
BITMAP
000290
0A8924
247414
8025A0
802940
607800
2A9695
000054
ENDCHAR
STARTCHAR Racute
ENCODING 340
SWIDTH 579 0
DWIDTH 8 0
BBX 8 13 0 -1
BITMAP
0050
0180
0100
6A90
8068
1409
146C
1F90
0D00
0A40
0890
0428
0005
ENDCHAR
STARTCHAR racute
ENCODING 341
SWIDTH 346 0
DWIDTH 5 0
BBX 5 9 0 0
BITMAP
0100
0800
1500
A680
8000
9000
5000
2000
2000
ENDCHAR
STARTCHAR Rcommaaccent
ENCODING 342
SWIDTH 579 0
DWIDTH 8 0
BBX 8 14 0 -5
BITMAP
6A90
8068
1409
146C
1F90
0D00
0A40
0890
0428
0005
0140
0180
0180
0100
ENDCHAR
STARTCHAR rcommaaccent
ENCODING 343
SWIDTH 346 0
DWIDTH 5 0
BBX 5 12 0 -5
BITMAP
0500
A680
8000
9000
5000
2000
2000
0000
0400
0800
0800
0400
ENDCHAR
STARTCHAR Rcaron
ENCODING 344
SWIDTH 579 0
DWIDTH 8 0
BBX 8 13 0 -1
BITMAP
0410
0290
0000
6A90
8068
1409
146C
1F90
0D00
0A40
0890
0428
0005
ENDCHAR
STARTCHAR rcaron
ENCODING 345
SWIDTH 346 0
DWIDTH 5 0
BBX 5 9 0 0
BITMAP
1100
1E00
0500
A680
8000
9000
5000
2000
2000
ENDCHAR
STARTCHAR Sacute
ENCODING 346
SWIDTH 627 0
DWIDTH 9 0
BBX 9 12 0 0
BITMAP
005000
018000
010000
015000
095900
080000
090000
019000
001900
800240
600240
0AAA00
ENDCHAR
STARTCHAR sacute
ENCODING 347
SWIDTH 514 0
DWIDTH 7 0
BBX 7 10 0 0
BITMAP
0040
0240
0100
0500
6580
5040
2A50
0064
5018
2AA4
ENDCHAR
STARTCHAR Scircumflex
ENCODING 348
SWIDTH 627 0
DWIDTH 9 0
BBX 9 12 0 0
BITMAP
00D000
02B000
051000
015000
095900
080000
090000
019000
001900
800240
600240
0AAA00
ENDCHAR
STARTCHAR scircumflex
ENCODING 349
SWIDTH 514 0
DWIDTH 7 0
BBX 7 10 0 0
BITMAP
0340
0AD0
0450
0500
6580
5040
2A50
0064
5018
2AA4
ENDCHAR
STARTCHAR Scedilla
ENCODING 350
SWIDTH 627 0
DWIDTH 9 0
BBX 9 14 0 -5
BITMAP
015000
095900
080000
090000
019000
001900
800240
600240
0AAA00
050000
029000
002000
026000
004000
ENDCHAR
STARTCHAR scedilla
ENCODING 351
SWIDTH 514 0
DWIDTH 7 0
BBX 7 12 0 -5
BITMAP
0500
6580
5040
2A50
0064
5018
2EA4
0800
0640
0050
0990
0100
ENDCHAR
STARTCHAR Scaron
ENCODING 352
SWIDTH 627 0
DWIDTH 9 0
BBX 9 11 0 0
BITMAP
011000
01E000
015000
095900
080000
090000
019000
001900
800240
600240
0AAA00
ENDCHAR
STARTCHAR scaron
ENCODING 353
SWIDTH 514 0
DWIDTH 7 0
BBX 7 9 0 0
BITMAP
0450
0680
0500
6580
5040
2A50
0064
5018
2AA4
ENDCHAR
STARTCHAR Tcommaaccent
ENCODING 354
SWIDTH 581 0
DWIDTH 8 0
BBX 9 14 0 -5
BITMAP
500000
6AEA80
008040
008000
005000
005000
006000
002000
002400
000000
001000
003000
003000
001000
ENDCHAR
STARTCHAR tcommaaccent
ENCODING 355
SWIDTH 328 0
DWIDTH 5 0
BBX 5 13 0 -4
BITMAP
1800
1800
1800
BE40
1800
1800
0800
0800
0800
0000
0400
0800
1800
ENDCHAR
STARTCHAR Tcaron
ENCODING 356
SWIDTH 581 0
DWIDTH 8 0
BBX 9 11 0 0
BITMAP
041000
029000
500000
6AEA80
008040
008000
005000
005000
006000
002000
002400
ENDCHAR
STARTCHAR tcaron
ENCODING 357
SWIDTH 431 0
DWIDTH 6 0
BBX 6 10 0 0
BITMAP
0020
1820
1820
1800
BE40
1800
1800
0800
0800
0800
ENDCHAR
STARTCHAR Utilde
ENCODING 360
SWIDTH 571 0
DWIDTH 8 0
BBX 8 10 0 0
BITMAP
0504
15A0
1000
8014
8018
8008
5008
600D
246A
0B81
ENDCHAR
STARTCHAR utilde
ENCODING 361
SWIDTH 501 0
DWIDTH 7 0
BBX 7 10 0 0
BITMAP
0910
2190
0000
8010
8030
8030
5070
20A4
1E58
0004
ENDCHAR
STARTCHAR Umacron
ENCODING 362
SWIDTH 571 0
DWIDTH 8 0
BBX 8 10 0 0
BITMAP
0590
0550
1000
8014
8018
8008
5008
600D
246A
0B81
ENDCHAR
STARTCHAR umacron
ENCODING 363
SWIDTH 501 0
DWIDTH 7 0
BBX 7 9 0 0
BITMAP
0640
1540
8010
8030
8030
5070
20A4
1E58
0004
ENDCHAR
STARTCHAR Ubreve
ENCODING 364
SWIDTH 571 0
DWIDTH 8 0
BBX 8 9 0 0
BITMAP
0190
1140
8014
8018
8008
5008
600D
246A
0B81
ENDCHAR
STARTCHAR ubreve
ENCODING 365
SWIDTH 501 0
DWIDTH 7 0
BBX 7 8 0 0
BITMAP
0540
8510
8030
8030
5070
20A4
1E58
0004
ENDCHAR
STARTCHAR Uring
ENCODING 366
SWIDTH 571 0
DWIDTH 8 0
BBX 8 10 0 0
BITMAP
0180
0580
1100
8014
8018
8008
5008
600D
246A
0B81
ENDCHAR
STARTCHAR uring
ENCODING 367
SWIDTH 501 0
DWIDTH 7 0
BBX 7 8 0 0
BITMAP
0640
8950
8130
8030
5070
20A4
1E58
0004
ENDCHAR
STARTCHAR Uhungarumlaut
ENCODING 368
SWIDTH 571 0
DWIDTH 8 0
BBX 8 10 0 0
BITMAP
0650
0980
1000
8014
8018
8008
5008
600D
246A
0B81
ENDCHAR
STARTCHAR uhungarumlaut
ENCODING 369
SWIDTH 501 0
DWIDTH 7 0
BBX 7 10 0 0
BITMAP
0650
0980
0000
8010
8030
8030
5070
20A4
1E58
0004
ENDCHAR
STARTCHAR Uogonek
ENCODING 370
SWIDTH 571 0
DWIDTH 8 0
BBX 8 10 0 -3
BITMAP
2004
5018
5008
5008
6009
201E
19A7
0649
0019
0001
ENDCHAR
STARTCHAR uogonek
ENCODING 371
SWIDTH 501 0
DWIDTH 7 0
BBX 7 9 0 -2
BITMAP
4000
8020
8030
9030
6070
2994
0528
0050
0024
ENDCHAR
STARTCHAR Wcircumflex
ENCODING 372
SWIDTH 703 0
DWIDTH 10 0
BBX 10 12 0 0
BITMAP
00A000
01A800
010400
000000
000000
800040
8000C0
800090
808050
90C060
62A090
191F40
ENDCHAR
STARTCHAR wcircumflex
ENCODING 373
SWIDTH 656 0
DWIDTH 9 0
BBX 9 10 0 0
BITMAP
00D000
02B400
011400
000000
400000
804200
808180
809080
61E180
1E1A00
ENDCHAR
STARTCHAR Ycircumflex
ENCODING 374
SWIDTH 403 0
DWIDTH 6 0
BBX 6 12 0 0
BITMAP
0A00
1A40
1040
8010
5050
2480
0B80
0240
0200
0200
0600
0600
ENDCHAR
STARTCHAR ycircumflex
ENCODING 375
SWIDTH 487 0
DWIDTH 7 0
BBX 7 17 0 -7
BITMAP
0340
0AC0
1450
0000
4010
8020
9024
6024
2478
0648
0008
0008
0014
0014
6020
2860
0680
ENDCHAR
STARTCHAR Ydieresis
ENCODING 376
SWIDTH 403 0
DWIDTH 6 0
BBX 6 11 0 0
BITMAP
1000
2680
8010
5050
2480
0B80
0240
0200
0200
0600
0600
ENDCHAR
STARTCHAR Zacute
ENCODING 377
SWIDTH 571 0
DWIDTH 8 0
BBX 8 12 0 0
BITMAP
0040
0240
0100
6A00
5090
0020
0060
06F8
1680
0200
0505
07F9
ENDCHAR
STARTCHAR zacute
ENCODING 378
SWIDTH 459 0
DWIDTH 6 0
BBX 6 10 0 0
BITMAP
0100
0900
0400
AA40
0080
0140
6F90
0800
2410
2F90
ENDCHAR
STARTCHAR Zdotaccent
ENCODING 379
SWIDTH 571 0
DWIDTH 8 0
BBX 8 11 0 0
BITMAP
0100
0100
6A00
5090
0020
0060
06F8
1680
0200
0505
07F9
ENDCHAR
STARTCHAR zdotaccent
ENCODING 380
SWIDTH 459 0
DWIDTH 6 0
BBX 6 10 0 0
BITMAP
0100
0100
0400
AA40
0080
0140
6F90
0800
2410
2F90
ENDCHAR
STARTCHAR Zcaron
ENCODING 381
SWIDTH 571 0
DWIDTH 8 0
BBX 8 11 0 0
BITMAP
0440
0780
6A00
5090
0020
0060
06F8
1680
0200
0505
07F9
ENDCHAR
STARTCHAR zcaron
ENCODING 382
SWIDTH 459 0
DWIDTH 6 0
BBX 6 10 0 0
BITMAP
1140
0A00
0400
AA40
0080
0140
6F90
0800
2410
2F90
ENDCHAR
STARTCHAR florin
ENCODING 402
SWIDTH 376 0
DWIDTH 5 0
BBX 7 14 -1 -4
BITMAP
01A4
0208
0500
0900
0900
1A50
1A50
0500
0500
0500
0900
8900
6900
1800
ENDCHAR
STARTCHAR AEacute
ENCODING 508
SWIDTH 960 0
DWIDTH 13 0
BBX 13 12 0 0
BITMAP
00014000
06460000
14640000
2016AA40
100A0000
500A0000
500A1640
AA9B9500
50060000
60050000
20060140
200AFF80
ENDCHAR
STARTCHAR aeacute
ENCODING 509
SWIDTH 881 0
DWIDTH 12 0
BBX 12 11 0 -1
BITMAP
000100
001800
001000
0A42A0
009914
053814
69B9A0
801900
901800
2BE6A9
000014
ENDCHAR
STARTCHAR Oslashacute
ENCODING 510
SWIDTH 609 0
DWIDTH 9 0
BBX 8 11 0 -1
BITMAP
0080
0240
0100
1A60
60B4
8099
8082
9142
3606
0BA4
0800
ENDCHAR
STARTCHAR oslashacute
ENCODING 511
SWIDTH 487 0
DWIDTH 7 0
BBX 7 9 0 0
BITMAP
0040
0240
0400
0AA0
24B0
8094
8264
6970
2E80
ENDCHAR
STARTCHAR Scommaaccent
ENCODING 536
SWIDTH 627 0
DWIDTH 9 0
BBX 9 14 0 -5
BITMAP
015000
095900
080000
090000
019000
001900
800240
600240
0AAA00
000000
014000
018000
018000
010000
ENDCHAR
STARTCHAR scommaaccent
ENCODING 537
SWIDTH 514 0
DWIDTH 7 0
BBX 7 12 0 -5
BITMAP
0500
6580
5040
2A50
0064
5018
2AA4
0000
0100
0200
0200
0100
ENDCHAR
STARTCHAR circumflex
ENCODING 710
SWIDTH 375 0
DWIDTH 5 0
BBX 4 3 1 7
BITMAP
34
AD
45
ENDCHAR
STARTCHAR caron
ENCODING 711
SWIDTH 375 0
DWIDTH 5 0
BBX 4 2 1 7
BITMAP
45
68
ENDCHAR
STARTCHAR breve
ENCODING 728
SWIDTH 224 0
DWIDTH 3 0
BBX 3 2 0 5
BITMAP
58
10
ENDCHAR
STARTCHAR dotaccent
ENCODING 729
SWIDTH 152 0
DWIDTH 2 0
BBX 2 2 0 6
BITMAP
50
10
ENDCHAR
STARTCHAR ring
ENCODING 730
SWIDTH 333 0
DWIDTH 5 0
BBX 3 3 1 5
BITMAP
54
48
10
ENDCHAR
STARTCHAR ogonek
ENCODING 731
SWIDTH 254 0
DWIDTH 4 0
BBX 3 3 0 -2
BITMAP
10
50
64
ENDCHAR
STARTCHAR tilde
ENCODING 732
SWIDTH 402 0
DWIDTH 6 0
BBX 5 2 0 6
BITMAP
2440
8640
ENDCHAR
STARTCHAR hungarumlaut
ENCODING 733
SWIDTH 264 0
DWIDTH 4 0
BBX 4 2 0 6
BITMAP
25
58
ENDCHAR
STARTCHAR Wgrave
ENCODING 7808
SWIDTH 703 0
DWIDTH 10 0
BBX 10 10 0 0
BITMAP
005000
002000
000000
800040
8000C0
800090
808050
90C060
62A090
191F40
ENDCHAR
STARTCHAR wgrave
ENCODING 7809
SWIDTH 656 0
DWIDTH 9 0
BBX 9 8 0 0
BITMAP
008000
006000
400000
804200
808180
809080
61E180
1E1A00
ENDCHAR
STARTCHAR Wacute
ENCODING 7810
SWIDTH 703 0
DWIDTH 10 0
BBX 10 10 0 0
BITMAP
001000
008000
010000
800040
8000C0
800090
808050
90C060
62A090
191F40
ENDCHAR
STARTCHAR wacute
ENCODING 7811
SWIDTH 656 0
DWIDTH 9 0
BBX 9 9 0 0
BITMAP
001000
008000
010000
400000
804200
808180
809080
61E180
1E1A00
ENDCHAR
STARTCHAR Wdieresis
ENCODING 7812
SWIDTH 703 0
DWIDTH 10 0
BBX 10 10 0 0
BITMAP
010000
026800
000000
800040
8000C0
800090
808050
90C060
62A090
191F40
ENDCHAR
STARTCHAR wdieresis
ENCODING 7813
SWIDTH 656 0
DWIDTH 9 0
BBX 9 8 0 0
BITMAP
011000
033400
400000
804200
808180
809080
61E180
1E1A00
ENDCHAR
STARTCHAR Ygrave
ENCODING 7922
SWIDTH 403 0
DWIDTH 6 0
BBX 6 12 0 0
BITMAP
0800
0600
0000
8010
5050
2480
0B80
0240
0200
0200
0600
0600
ENDCHAR
STARTCHAR ygrave
ENCODING 7923
SWIDTH 487 0
DWIDTH 7 0
BBX 7 15 0 -7
BITMAP
0500
0140
4010
8020
9024
6024
2478
0648
0008
0008
0014
0014
6020
2860
0680
ENDCHAR
STARTCHAR endash
ENCODING 8211
SWIDTH 287 0
DWIDTH 4 0
BBX 4 2 0 3
BITMAP
15
55
ENDCHAR
STARTCHAR emdash
ENCODING 8212
SWIDTH 512 0
DWIDTH 7 0
BBX 7 2 0 3
BITMAP
1554
6954
ENDCHAR
STARTCHAR quoteleft
ENCODING 8216
SWIDTH 102 0
DWIDTH 1 0
BBX 2 3 0 7
BITMAP
80
80
90
ENDCHAR
STARTCHAR quoteright
ENCODING 8217
SWIDTH 102 0
DWIDTH 1 0
BBX 2 3 0 7
BITMAP
80
80
90
ENDCHAR
STARTCHAR quotesinglbase
ENCODING 8218
SWIDTH 102 0
DWIDTH 1 0
BBX 2 3 0 0
BITMAP
80
80
90
ENDCHAR
STARTCHAR quotedblleft
ENCODING 8220
SWIDTH 234 0
DWIDTH 3 0
BBX 3 4 0 7
BITMAP
48
88
9C
58
ENDCHAR
STARTCHAR quotedblright
ENCODING 8221
SWIDTH 234 0
DWIDTH 3 0
BBX 3 4 0 7
BITMAP
48
88
9C
58
ENDCHAR
STARTCHAR quotedblbase
ENCODING 8222
SWIDTH 341 0
DWIDTH 5 0
BBX 3 5 1 -2
BITMAP
04
88
88
98
14
ENDCHAR
STARTCHAR dagger
ENCODING 8224
SWIDTH 375 0
DWIDTH 5 0
BBX 5 9 0 0
BITMAP
0400
0800
0800
7E80
0800
0900
0900
0500
0500
ENDCHAR
STARTCHAR daggerdbl
ENCODING 8225
SWIDTH 375 0
DWIDTH 5 0
BBX 7 11 -1 0
BITMAP
0100
0600
0200
0200
6BA4
0204
6BE4
0140
0140
0140
0140
ENDCHAR
STARTCHAR bullet
ENCODING 8226
SWIDTH 341 0
DWIDTH 5 0
BBX 3 3 1 2
BITMAP
34
7C
24
ENDCHAR
STARTCHAR ellipsis
ENCODING 8230
SWIDTH 612 0
DWIDTH 9 0
BBX 8 3 0 0
BITMAP
2081
75DB
35C6
ENDCHAR
STARTCHAR guilsinglleft
ENCODING 8249
SWIDTH 487 0
DWIDTH 7 0
BBX 6 6 0 0
BITMAP
0020
0190
0A00
2400
B940
15A0
ENDCHAR
STARTCHAR guilsinglright
ENCODING 8250
SWIDTH 403 0
DWIDTH 6 0
BBX 6 7 0 0
BITMAP
4000
6800
06D0
0090
0640
1800
6000
ENDCHAR
STARTCHAR fraction
ENCODING 8260
SWIDTH 309 0
DWIDTH 4 0
BBX 4 11 0 0
BITMAP
01
02
02
05
09
08
18
24
20
90
80
ENDCHAR
STARTCHAR Euro
ENCODING 8364
SWIDTH 741 0
DWIDTH 10 0
BBX 10 10 0 0
BITMAP
000680
001940
00B400
AB9900
020000
06A900
690000
050000
020050
01AE90
ENDCHAR
STARTCHAR trademark
ENCODING 8482
SWIDTH 1116 0
DWIDTH 16 0
BBX 16 9 0 0
BITMAP
A9544004
0596E018
00803838
00902BE8
00502008
00502008
0060200C
00202008
00241009
ENDCHAR
STARTCHAR minus
ENCODING 8722
SWIDTH 287 0
DWIDTH 4 0
BBX 4 2 0 3
BITMAP
15
55
ENDCHAR
STARTCHAR commaaccent
ENCODING 63171
SWIDTH 375 0
DWIDTH 5 0
BBX 2 3 1 -4
BITMAP
10
60
60
ENDCHAR
STARTCHAR fi
ENCODING 64257
SWIDTH 551 0
DWIDTH 8 0
BBX 6 10 0 0
BITMAP
0690
0860
1080
2000
2050
6990
5DA0
0860
0630
0230
ENDCHAR
STARTCHAR fl
ENCODING 64258
SWIDTH 723 0
DWIDTH 10 0
BBX 6 10 0 0
BITMAP
0690
0820
1050
2090
2090
6990
5D90
0890
0690
0290
ENDCHAR
STARTCHAR .notdef
ENCODING -1
SWIDTH 375 0
DWIDTH 5 0
BBX 1 1 0 0
BITMAP
00
ENDCHAR
STARTCHAR .null
ENCODING -1
SWIDTH 0 0
DWIDTH 0 0
BBX 1 1 0 0
BITMAP
00
ENDCHAR
STARTCHAR nonmarkingreturn
ENCODING -1
SWIDTH 375 0
DWIDTH 5 0
BBX 1 1 0 0
BITMAP
00
ENDCHAR
ENDFONT
